<svg width="20" height="18" viewBox="0 0 20 18" fill="none" xmlns="http://www.w3.org/2000/svg">
<path d="M12.8 5.29993C12.5 5.29993 12.3 5.39993 12.1 5.59993C11.9 5.79993 11.8 6.09993 11.8 6.29993C11.8 6.49993 11.9 6.79993 12.1 6.99993C12.5 7.39993 13.2 7.39993 13.6 6.99993C13.8 6.79993 13.9 6.49993 13.9 6.29993C13.9 6.09993 13.8 5.79993 13.6 5.59993C13.3 5.39993 13.1 5.29993 12.8 5.29993Z" fill="#616161"/>
<path d="M20 2.09995C20 1.69995 19.9 1.39995 19.6 1.09995C19.3 0.799951 19 0.699951 18.6 0.699951H1.49998C1.09998 0.699951 0.799976 0.799951 0.499976 1.09995C0.199976 1.39995 0.0999756 1.69995 0.0999756 2.09995V16.1C0.0999756 16.5 0.299976 16.8 0.499976 17.1C0.799976 17.4 1.09998 17.5 1.49998 17.5H18.6C19 17.5 19.3 17.3 19.6 17.1C19.9 16.8 20 16.5 20 16.1V2.09995ZM18.7 12.9L15.7 9.89995C15.4 9.59995 15.1 9.49995 14.7 9.49995C14.3 9.49995 14 9.59995 13.7 9.89995L11.6 12L11.5 11.9L7.19998 7.59995C6.89998 7.29995 6.59998 7.19995 6.19998 7.19995C5.79998 7.19995 5.49998 7.29995 5.19998 7.59995L1.39998 11.4V1.89995H18.7V12.9Z" fill="#616161"/>
</svg>
