<svg width="30" height="30" viewBox="0 0 30 30" fill="none" xmlns="http://www.w3.org/2000/svg">
<path fill-rule="evenodd" clip-rule="evenodd" d="M11.7305 4.6786C9.90386 4.56441 8.09837 5.12104 6.65311 6.24394C5.20786 7.36684 4.22228 8.97876 3.88149 10.777C3.54069 12.5752 3.86812 14.4359 4.80229 16.0098C4.93386 16.2314 4.96835 16.4975 4.89767 16.7454L4.18189 19.2556L6.69216 18.5398C6.94004 18.4692 7.20609 18.5037 7.42774 18.6352C9.0016 19.5694 10.8624 19.8968 12.6606 19.556C14.4588 19.2152 16.0707 18.2297 17.1936 16.7844C18.3165 15.3391 18.8731 13.5337 18.7589 11.707C18.6447 9.88037 17.8676 8.15825 16.5734 6.8641C15.2793 5.56994 13.5572 4.79279 11.7305 4.6786ZM5.50273 4.76331C7.30874 3.36013 9.5649 2.66456 11.8475 2.80725C14.1301 2.94995 16.2821 3.92109 17.8992 5.53827C19.5164 7.15546 20.4876 9.30743 20.6303 11.59C20.773 13.8726 20.0774 16.1288 18.6742 17.9348C17.271 19.7408 15.2567 20.9724 13.0097 21.3982C10.898 21.7984 8.71728 21.4612 6.82996 20.4503L4.28834 21.175L4.285 21.1759C4.00448 21.2548 3.70801 21.2576 3.42607 21.1839C3.14413 21.1102 2.88691 20.9627 2.68086 20.7567C2.47481 20.5506 2.32735 20.2934 2.25366 20.0115C2.17997 19.7295 2.1827 19.433 2.26157 19.1525L2.26251 19.1492L2.98723 16.6076C1.97632 14.7202 1.63907 12.5395 2.03928 10.4278C2.46514 8.18077 3.69673 6.1665 5.50273 4.76331Z" fill="#0A3CD2"/>
<path fill-rule="evenodd" clip-rule="evenodd" d="M18.2708 9.33756C18.298 8.82051 18.7391 8.42336 19.2562 8.4505C20.8668 8.53505 22.4283 9.03421 23.7893 9.8996C25.1503 10.765 26.2647 11.9673 27.0245 13.3899C27.7843 14.8126 28.1637 16.4074 28.126 18.0198C28.0916 19.4942 27.7094 20.9376 27.013 22.2333L27.7385 24.7775C27.8173 25.058 27.8201 25.3545 27.7464 25.6364C27.6727 25.9184 27.5252 26.1756 27.3192 26.3816C27.1131 26.5877 26.8559 26.7352 26.574 26.8088C26.292 26.8825 25.9955 26.8798 25.715 26.8009L25.7117 26.8L23.1705 26.0754C22.0724 26.6645 20.8664 27.0292 19.6231 27.1465C18.2424 27.2767 16.8501 27.0986 15.5467 26.6251C14.2434 26.1516 13.0614 25.3945 12.0863 24.4085C11.1112 23.4224 10.3673 22.2321 9.90832 20.9236C9.73695 20.435 9.99411 19.9 10.4827 19.7286C10.9713 19.5572 11.5063 19.8144 11.6776 20.303C12.0447 21.3495 12.6397 22.3015 13.4195 23.09C14.1993 23.8786 15.1446 24.4841 16.187 24.8628C17.2294 25.2415 18.3429 25.3839 19.447 25.2798C20.5511 25.1756 21.6184 24.8275 22.5716 24.2606L23.0508 25.0664L23.3079 24.1648L25.8181 24.8806L25.1024 22.3703C25.0315 22.122 25.0663 21.8554 25.1985 21.6335C25.8587 20.5253 26.2214 19.2655 26.2516 17.9759C26.2817 16.6864 25.9783 15.411 25.3706 14.2732C24.763 13.1355 23.8717 12.1739 22.7832 11.4818C21.6948 10.7897 20.446 10.3905 19.1579 10.3229C18.6408 10.2958 18.2437 9.85462 18.2708 9.33756Z" fill="#0A3CD2"/>
</svg>
