<svg width="18" height="16" viewBox="0 0 18 16" fill="none" xmlns="http://www.w3.org/2000/svg">
<path d="M15.875 0.5H2.125C1.79083 0.5 1.4775 0.63 1.24167 0.865833C1.005 1.10333 0.875 1.4175 0.875 1.75V14.1633C0.876667 14.3967 0.945833 14.6283 1.07417 14.83C1.20167 15.0267 1.38333 15.185 1.5975 15.285C1.76083 15.3617 1.94333 15.4025 2.12417 15.4025C2.1775 15.4025 2.23 15.3992 2.28417 15.3917C2.51833 15.3617 2.73917 15.2658 2.92417 15.1125L5.38 13.0525L5.43833 13.0033H5.51417L15.875 13C16.2092 13 16.5225 12.87 16.7575 12.6342C16.995 12.3983 17.125 12.085 17.125 11.75V1.75C17.125 1.415 16.995 1.10167 16.7592 0.866667C16.5217 0.63 16.2083 0.5 15.875 0.5Z" fill="#424242"/>
<path d="M11.6904 4.74002H6.69043C6.34543 4.74002 6.06543 5.02002 6.06543 5.36502C6.06543 5.71002 6.34543 5.99002 6.69043 5.99002H11.6904C12.0346 5.99002 12.3154 5.71002 12.3154 5.36502C12.3154 5.02002 12.0346 4.74002 11.6904 4.74002Z" fill="white"/>
<path d="M11.6904 7.25751H6.69043C6.34543 7.25751 6.06543 7.53751 6.06543 7.88251C6.06543 8.22751 6.34543 8.50751 6.69043 8.50751H11.6904C12.0346 8.50751 12.3154 8.22751 12.3154 7.88251C12.3154 7.53751 12.0346 7.25751 11.6904 7.25751Z" fill="white"/>
</svg>
