<svg width="20" height="20" viewBox="0 0 20 20" fill="none" xmlns="http://www.w3.org/2000/svg">
<path d="M19.0465 9.07369H2.93206L9.03457 2.01767C9.41597 1.63626 9.32062 0.968799 8.93921 0.682745C8.55781 0.301338 7.89035 0.39669 7.60429 0.778096L0.262217 9.35974C0.262217 9.35974 0.166865 9.45509 0.166865 9.55044L0.0715137 9.6458C-0.0238379 9.8365 -0.0238379 10.1226 0.0715137 10.3133C0.0715137 10.3133 0.0715137 10.4086 0.166865 10.4086C0.166865 10.504 0.262217 10.504 0.262217 10.5993L7.60429 19.181C7.79499 19.3717 8.08105 19.5624 8.3671 19.5624C8.55781 19.5624 8.84386 19.467 8.93921 19.3717C9.32062 18.9903 9.41597 18.4181 9.03457 18.0367L2.93206 10.9807H19.0465C19.6186 10.9807 20 10.5993 20 10.0272C20 9.45509 19.6186 9.07369 19.0465 9.07369Z" fill="white"/>
</svg>
