<svg width="12" height="18" viewBox="0 0 12 18" fill="none" xmlns="http://www.w3.org/2000/svg">
<path fill-rule="evenodd" clip-rule="evenodd" d="M0.741129 1.24112C0.975549 1.0067 1.29349 0.875 1.62501 0.875H10.375C10.7065 0.875 11.0245 1.0067 11.2589 1.24112C11.4933 1.47554 11.625 1.79348 11.625 2.125V4.9101C11.6238 5.10275 11.5784 5.29255 11.4922 5.46486C11.4061 5.63717 11.2815 5.78739 11.1281 5.90393L6.37711 9.49842C6.15481 9.66661 5.84801 9.66725 5.62501 9.5L0.87193 5.93519C0.718524 5.81865 0.593946 5.66842 0.507791 5.49611C0.421635 5.3238 0.376211 5.134 0.375024 4.94135L0.375 4.9375L0.375012 2.125C0.375012 1.79348 0.506708 1.47554 0.741129 1.24112ZM10.375 2.125H1.62501V4.93403C1.62507 4.9351 1.62535 4.93614 1.62582 4.93709C1.6263 4.93805 1.62697 4.93889 1.62778 4.93958L5.99837 8.21752L10.3719 4.90857C10.372 4.90854 10.3719 4.9086 10.3719 4.90857C10.3728 4.90786 10.3737 4.90687 10.3742 4.90584C10.3747 4.90489 10.375 4.90385 10.375 4.90279V2.125Z" fill="#1F1F1F"/>
<path fill-rule="evenodd" clip-rule="evenodd" d="M5.625 8.5C5.848 8.33275 6.1548 8.33339 6.3771 8.50158L11.1281 12.0961C11.2815 12.2126 11.4061 12.3628 11.4922 12.5351C11.5784 12.7075 11.6238 12.8973 11.625 13.0899L11.625 13.0937L11.625 15.875C11.625 16.2065 11.4933 16.5245 11.2589 16.7589C11.0245 16.9933 10.7065 17.125 10.375 17.125H1.625C1.29348 17.125 0.975538 16.9933 0.741117 16.7589C0.506696 16.5245 0.375 16.2065 0.375 15.875V13.0586C0.376187 12.866 0.421623 12.6762 0.507779 12.5039C0.593935 12.3316 0.718521 12.1814 0.871925 12.0648L0.874993 12.0625L5.625 8.5ZM1.625 13.066C1.62506 13.0649 1.62534 13.0639 1.62581 13.0629C1.62629 13.062 1.62696 13.0611 1.62777 13.0604L5.99836 9.78248L10.3719 13.0914C10.3719 13.0914 10.372 13.0915 10.3719 13.0914C10.3728 13.0921 10.3737 13.0931 10.3742 13.0942C10.3744 13.0945 10.3745 13.0948 10.3746 13.0952C10.3748 13.0958 10.375 13.0965 10.375 13.0972V15.875H1.625V13.066Z" fill="#1F1F1F"/>
</svg>
