<svg width="15" height="19" viewBox="0 0 15 19" fill="none" xmlns="http://www.w3.org/2000/svg">
<path d="M7.20831 0.666687C5.38558 0.668755 3.6381 1.39375 2.34924 2.68261C1.06037 3.97148 0.335381 5.71896 0.333313 7.54169C0.333313 13.4245 6.58331 17.8698 6.84894 18.0573C6.95539 18.1282 7.08042 18.166 7.20831 18.166C7.3362 18.166 7.46124 18.1282 7.56769 18.0573C7.83331 17.8698 14.0833 13.4245 14.0833 7.54169C14.0812 5.71896 13.3563 3.97148 12.0674 2.68261C10.7785 1.39375 9.03104 0.668755 7.20831 0.666687ZM7.20831 5.04169C7.70277 5.04169 8.18611 5.18831 8.59724 5.46301C9.00836 5.73772 9.32879 6.12816 9.51801 6.58498C9.70723 7.04179 9.75674 7.54446 9.66028 8.02941C9.56381 8.51436 9.32571 8.95982 8.97608 9.30945C8.62645 9.65908 8.18099 9.89719 7.69604 9.99365C7.21109 10.0901 6.70842 10.0406 6.2516 9.85139C5.79479 9.66217 5.40434 9.34173 5.12964 8.93061C4.85494 8.51949 4.70831 8.03614 4.70831 7.54169C4.70831 6.87864 4.9717 6.24276 5.44055 5.77392C5.90939 5.30508 6.54527 5.04169 7.20831 5.04169Z" fill="#1F1F1F"/>
</svg>
