<svg width="19" height="20" viewBox="0 0 19 20" fill="none" xmlns="http://www.w3.org/2000/svg">
<path d="M9.101 10.75C3.998 10.75 0.151001 12.878 0.151001 15.7V18C0.151001 18.449 0.338001 18.884 0.678001 19.224C1.018 19.564 1.452 19.75 1.9 19.75H16.3C16.749 19.75 17.183 19.563 17.523 19.224C17.863 18.885 18.05 18.45 18.05 18V15.7C18.051 12.878 14.203 10.75 9.101 10.75ZM16.551 18V18.25H16.301H1.9H1.65V18V15.7C1.65 13.798 4.992 12.25 9.1 12.25C13.347 12.25 16.55 13.733 16.55 15.7V18H16.551Z" fill="#9E9E9E"/>
<path d="M9 0.25C6.657 0.25 4.75 2.202 4.75 4.6C4.75 6.927 6.617 8.75 9 8.75C11.357 8.75 13.35 6.758 13.35 4.4C13.35 2.034 11.479 0.25 9 0.25ZM9 7.45C7.349 7.45 6.15 6.251 6.15 4.6C6.15 2.946 7.402 1.65 9 1.65C10.6 1.65 11.95 3.001 11.95 4.6C11.95 6.251 10.709 7.45 9 7.45Z" fill="#9E9E9E"/>
</svg>
