<svg width="20" height="20" viewBox="0 0 20 20" fill="none" xmlns="http://www.w3.org/2000/svg">
<path d="M18.9 7.69998L11 0.499976C10.7 0.199976 10.4 0.0999756 10 0.0999756C9.60001 0.0999756 9.30001 0.199976 9.00001 0.499976L1.10001 7.69998C0.800006 7.99998 0.600006 8.39998 0.600006 8.79998V17.9C0.600006 18.3 0.800006 18.7 1.00001 19C1.30001 19.3 1.70001 19.4 2.10001 19.4H6.80001C7.60001 19.4 8.30001 18.7 8.30001 17.9V14.7V13.2H9.80001H10.2H11.7V14.7V17.9C11.7 18.7 12.4 19.4 13.2 19.4H17.9C18.7 19.4 19.4 18.7 19.4 17.9V8.79998C19.4 8.29998 19.2 7.89998 18.9 7.69998ZM17.9 17.9H13.2V13.2C13.2 12.4 12.6 11.8 11.8 11.7H11.5H8.30001H8.00001C7.30001 11.8 6.80001 12.3 6.70001 13V13.5V18H2.10001V8.89997L10 1.59998L17.9 8.79998V17.9Z" fill="#1F1F1F"/>
</svg>
