<svg width="14" height="18" viewBox="0 0 14 18" fill="none" xmlns="http://www.w3.org/2000/svg">
<path fill-rule="evenodd" clip-rule="evenodd" d="M7 5.25C5.96447 5.25 5.125 6.08947 5.125 7.125C5.125 8.16053 5.96447 9 7 9C8.03553 9 8.875 8.16053 8.875 7.125C8.875 6.08947 8.03553 5.25 7 5.25ZM3.875 7.125C3.875 5.39911 5.27411 4 7 4C8.72589 4 10.125 5.39911 10.125 7.125C10.125 8.85089 8.72589 10.25 7 10.25C5.27411 10.25 3.875 8.85089 3.875 7.125Z" fill="#1F1F1F"/>
<path fill-rule="evenodd" clip-rule="evenodd" d="M7 1.5C5.50816 1.5 4.07742 2.09263 3.02252 3.14752C1.96763 4.20242 1.375 5.63316 1.375 7.125C1.375 9.71247 2.8199 12.0685 4.34663 13.8243C5.10236 14.6933 5.85969 15.3941 6.42822 15.8773C6.65306 16.0684 6.84765 16.2249 7 16.3437C7.15235 16.2249 7.34694 16.0684 7.57178 15.8773C8.14031 15.3941 8.89764 14.6933 9.65337 13.8243C11.1801 12.0685 12.625 9.71247 12.625 7.125C12.625 5.63316 12.0324 4.20242 10.9775 3.14752C9.92258 2.09263 8.49184 1.5 7 1.5ZM7 17.125C6.64159 17.637 6.64141 17.6369 6.64121 17.6368L6.64069 17.6364L6.63923 17.6354L6.63461 17.6321L6.61872 17.6208C6.60521 17.6112 6.58595 17.5973 6.5613 17.5793C6.51202 17.5433 6.4412 17.4908 6.35192 17.4226C6.17342 17.2862 5.92077 17.0865 5.61866 16.8297C5.01531 16.3169 4.21014 15.5723 3.40337 14.6445C1.8051 12.8065 0.125 10.1625 0.125 7.125C0.125 5.30164 0.849328 3.55295 2.13864 2.26364C3.42795 0.974328 5.17664 0.25 7 0.25C8.82336 0.25 10.572 0.974328 11.8614 2.26364C13.1507 3.55295 13.875 5.30164 13.875 7.125C13.875 10.1625 12.1949 12.8065 10.5966 14.6445C9.78986 15.5723 8.98469 16.3169 8.38134 16.8297C8.07923 17.0865 7.82658 17.2862 7.64808 17.4226C7.5588 17.4908 7.48798 17.5433 7.4387 17.5793C7.41405 17.5973 7.39479 17.6112 7.38128 17.6208L7.36539 17.6321L7.36077 17.6354L7.35931 17.6364L7.35879 17.6368C7.35859 17.6369 7.35841 17.637 7 17.125ZM7 17.125L7.35841 17.637C7.14321 17.7877 6.85679 17.7877 6.64159 17.637L7 17.125Z" fill="#1F1F1F"/>
</svg>
