<svg width="16" height="18" viewBox="0 0 16 18" fill="none" xmlns="http://www.w3.org/2000/svg">
<path d="M8.66669 8.41669H7.41669V9.66669H8.66669V8.41669Z" fill="#1F1F1F"/>
<path d="M12.1667 8.41669H10.9167V9.66669H12.1667V8.41669Z" fill="#1F1F1F"/>
<path d="M5.08331 8.41669H3.83331V9.66669H5.08331V8.41669Z" fill="#1F1F1F"/>
<path d="M14.25 2.08331H13.0833H13V0.333313H11.75V2.08331H4.25V0.333313H3V1.99998V2.08331H2.83333H1.75C0.916667 2.08331 0.25 2.74998 0.25 3.58331V16C0.25 16.8333 0.916667 17.5 1.75 17.5H14.1667C15 17.5 15.6667 16.8333 15.6667 16L15.75 3.58331C15.75 2.74998 15.0833 2.08331 14.25 2.08331ZM14.5 16.25H1.5V6.08331H14.5V16.25Z" fill="#1F1F1F"/>
</svg>
