<svg width="30" height="30" viewBox="0 0 30 30" fill="none" xmlns="http://www.w3.org/2000/svg">
<path fill-rule="evenodd" clip-rule="evenodd" d="M24.9076 7.91859L27.7862 13.4301L27.7862 13.4301L27.7885 13.4345L25.7174 14.4659L22.8356 8.95456L24.9076 7.91859ZM28.2067 14.2728L28.6249 15.1126L25.7304 16.554C25.2734 16.7816 24.7183 16.6017 24.4817 16.1492L20.7317 8.97737C20.6151 8.75442 20.5931 8.49397 20.6705 8.25458C20.7479 8.01519 20.9182 7.81696 21.1432 7.70444L24.0702 6.24094C24.5076 6.01928 25.0147 5.9789 25.4817 6.12869C25.9496 6.27876 26.3393 6.60758 26.5659 7.04352C26.5661 7.04394 26.5663 7.04437 26.5665 7.0448L29.4458 12.5577C29.4463 12.5585 29.4468 12.5594 29.4472 12.5602C29.5633 12.7805 29.6344 13.0217 29.6563 13.2698C29.6782 13.5188 29.6502 13.7697 29.5738 14.0078C29.4973 14.2458 29.3741 14.4661 29.2112 14.6558C29.0484 14.8455 28.8492 15.0007 28.6255 15.1123L28.2067 14.2728Z" fill="#0A3CD2"/>
<path fill-rule="evenodd" clip-rule="evenodd" d="M5.09729 7.79211L2.21635 13.3081L4.28346 14.3458L7.16495 8.82594L5.09729 7.79211ZM4.50943 6.01161C4.97347 5.85839 5.479 5.89239 5.91834 6.10637L5.92711 6.11065L8.85678 7.57554C9.08171 7.688 9.25202 7.88612 9.32946 8.12537C9.4069 8.36463 9.38497 8.62497 9.26859 8.8479L5.51859 16.0315C5.28167 16.4854 4.72445 16.6652 4.2669 16.4355L1.37573 14.9841C1.15332 14.8743 0.955037 14.7212 0.792538 14.5338C0.628904 14.345 0.504895 14.1253 0.427883 13.8876C0.350872 13.65 0.32243 13.3993 0.344249 13.1505C0.365957 12.9029 0.436974 12.6622 0.553104 12.4425L3.43396 6.92668C3.43412 6.92638 3.43428 6.92608 3.43444 6.92578C3.66004 6.49271 4.04571 6.16472 4.50943 6.01161Z" fill="#0A3CD2"/>
<path fill-rule="evenodd" clip-rule="evenodd" d="M3.94851 15.0208C4.26711 14.6126 4.85625 14.5401 5.26439 14.8587L11.6745 19.8626L11.6886 19.8738L18.4381 21.5611C18.4455 21.562 18.453 21.5614 18.4603 21.5594C18.4674 21.5574 18.4741 21.5541 18.48 21.5497L22.748 17.2817L24.5986 15.1072C24.9341 14.7129 25.5258 14.6653 25.9201 15.0009C26.3144 15.3365 26.362 15.9282 26.0265 16.3225L24.1515 18.5256C24.1352 18.5447 24.1182 18.5631 24.1004 18.5809L19.7879 22.8934C19.7839 22.8974 19.7798 22.9014 19.7757 22.9054C19.7723 22.9087 19.7688 22.912 19.7653 22.9152C19.5372 23.1286 19.2607 23.2835 18.9597 23.3667C18.6586 23.4499 18.3418 23.4589 18.0365 23.3929C18.0266 23.3908 18.0168 23.3885 18.007 23.3861L11.2101 21.6869C11.202 21.6848 11.1939 21.6827 11.1858 21.6804C10.941 21.6122 10.7127 21.4949 10.5147 21.3358L4.11063 16.3367C3.7025 16.0181 3.62991 15.4289 3.94851 15.0208Z" fill="#0A3CD2"/>
<path fill-rule="evenodd" clip-rule="evenodd" d="M16.7946 9.48047L12.2137 14.0497C12.2129 14.0507 12.2123 14.0517 12.2119 14.0529C12.2114 14.0544 12.2111 14.0561 12.2112 14.0577C12.2114 14.0594 12.2118 14.061 12.2126 14.0625C12.2134 14.0639 12.2145 14.0652 12.2158 14.0662L12.8449 14.5438C13.3322 14.9066 13.9236 15.1025 14.5313 15.1025C15.1397 15.1025 15.7319 14.9061 16.2196 14.5423C16.2199 14.5421 16.2202 14.5419 16.2205 14.5417L17.7188 13.418C18.048 13.171 18.4998 13.1677 18.8327 13.4098L23.9889 17.1598C24.4077 17.4643 24.5002 18.0506 24.1957 18.4694C23.8912 18.8881 23.3048 18.9807 22.8861 18.6762L18.2898 15.3334L17.342 16.0443C16.5302 16.6502 15.5443 16.9776 14.5313 16.9776C13.5182 16.9776 12.5323 16.6502 11.7205 16.0443L11.7143 16.0397L11.0815 15.5592C10.8688 15.3975 10.6924 15.1921 10.5649 14.9573C10.4374 14.7225 10.3612 14.4633 10.3414 14.1968C10.3216 13.9304 10.3586 13.6627 10.45 13.4117C10.5413 13.1606 10.685 12.9318 10.8714 12.7404L10.8809 12.7308L15.4755 8.14795C15.6491 7.97513 15.8552 7.83826 16.0818 7.74517C16.3079 7.65233 16.55 7.60486 16.7943 7.60547C16.795 7.60547 16.7956 7.60547 16.7963 7.60547L16.793 8.54297V7.60547H16.7943H21.5625C22.0803 7.60547 22.5 8.0252 22.5 8.54297C22.5 9.06073 22.0803 9.48047 21.5625 9.48047H16.7946Z" fill="#0A3CD2"/>
<path fill-rule="evenodd" clip-rule="evenodd" d="M14.778 7.55744L18.8314 9.39669C19.3029 9.61064 19.8585 9.40185 20.0725 8.93035C20.2864 8.45885 20.0776 7.90319 19.6061 7.68925L15.5514 5.8494L15.5502 5.84882C15.1452 5.66579 14.6883 5.63256 14.2611 5.75507L8.24471 7.51424C7.74775 7.65955 7.46268 8.18021 7.60799 8.67717C7.7533 9.17413 8.27396 9.4592 8.77092 9.31389L14.778 7.55744Z" fill="#0A3CD2"/>
<path fill-rule="evenodd" clip-rule="evenodd" d="M5.85426 20.9483C6.1935 20.5571 6.78559 20.515 7.17675 20.8542L9.82195 23.1483C9.8237 23.1487 9.82544 23.1492 9.82718 23.1496L13.3545 24.0402C13.8565 24.167 14.1607 24.6767 14.034 25.1787C13.9072 25.6807 13.3975 25.9849 12.8955 25.8582L9.37753 24.9699C9.08625 24.9018 8.81645 24.7623 8.59243 24.5639L5.94828 22.2708C5.55712 21.9315 5.51503 21.3394 5.85426 20.9483Z" fill="#0A3CD2"/>
</svg>
