<svg width="20" height="20" viewBox="0 0 20 20" fill="none" xmlns="http://www.w3.org/2000/svg">
<path d="M19.0465 9.07375H2.93206L9.03457 2.01773C9.41597 1.63632 9.32062 0.96886 8.93921 0.682806C8.55781 0.301399 7.89035 0.396751 7.60429 0.778157L0.262217 9.3598C0.262217 9.3598 0.166865 9.45515 0.166865 9.55051L0.0715137 9.64586C-0.0238379 9.83656 -0.0238379 10.1226 0.0715137 10.3133C0.0715137 10.3133 0.0715137 10.4087 0.166865 10.4087C0.166865 10.504 0.262217 10.504 0.262217 10.5994L7.60429 19.181C7.79499 19.3717 8.08105 19.5624 8.3671 19.5624C8.55781 19.5624 8.84386 19.4671 8.93921 19.3717C9.32062 18.9903 9.41597 18.4182 9.03457 18.0368L2.93206 10.9808H19.0465C19.6186 10.9808 20 10.5994 20 10.0273C20 9.45515 19.6186 9.07375 19.0465 9.07375Z" fill="#1F1F1F"/>
</svg>
