<svg width="20" height="20" viewBox="0 0 20 20" fill="none" xmlns="http://www.w3.org/2000/svg">
<path d="M19.0996 13.8C18.5996 13.8 18.0996 13.6 17.6996 13.2C17.2996 12.8 17.0996 12.3 17.0996 11.8V7.29995C17.0996 5.39995 16.3996 3.59995 14.9996 2.29995C13.6996 0.999951 11.7996 0.199951 9.99961 0.199951C8.09961 0.199951 6.29961 0.899951 4.99961 2.29995C3.69961 3.59995 2.89961 5.39995 2.89961 7.29995V11.8C2.89961 12.3 2.69961 12.8 2.29961 13.2C1.89961 13.6 1.39961 13.8 0.89961 13.8C0.49961 13.8 0.0996094 14.1 0.0996094 14.6C0.0996094 15.1 0.39961 15.4 0.89961 15.4H19.0996C19.4996 15.4 19.8996 15.1 19.8996 14.6C19.8996 14.1 19.4996 13.8 19.0996 13.8ZM5.99961 3.19995C7.09961 2.09995 8.49961 1.59995 9.99961 1.59995C11.4996 1.59995 12.8996 2.19995 13.9996 3.19995C15.0996 4.29995 15.5996 5.69995 15.5996 7.19995V11.7C15.5996 12.3 15.7996 12.9 16.0996 13.4L16.2996 13.7H3.79961L3.89961 13.4C4.19961 12.9 4.39961 12.3 4.39961 11.7V7.19995C4.39961 5.69995 4.99961 4.29995 5.99961 3.19995Z" fill="#1F1F1F"/>
<path d="M12.3 18C12.3 17.8 12.1 17.7 12 17.6C11.9 17.5 11.8 17.5 11.6 17.5C11.3 17.5 11.1 17.6 10.9 17.9C10.8 18.1 10.7 18.2 10.5 18.3C10.2 18.5 9.80001 18.5 9.40001 18.3C9.20001 18.2 9.10001 18.1 9.00001 17.9C8.90001 17.7 8.60002 17.5 8.30002 17.5C8.20002 17.5 8.00001 17.5 7.90001 17.6C7.70001 17.7 7.60002 17.9 7.60002 18.1C7.50002 18.3 7.60001 18.5 7.70001 18.7C7.90001 19.1 8.30002 19.4 8.60002 19.6C9.00002 19.8 9.40001 19.9 9.90001 19.9C10.4 19.9 10.8 19.8 11.2 19.6C11.6 19.4 11.9 19.1 12.1 18.7C12.3 18.4 12.4 18.2 12.3 18Z" fill="#1F1F1F"/>
</svg>
