<svg width="20" height="20" viewBox="0 0 20 20" fill="none" xmlns="http://www.w3.org/2000/svg">
<path fill-rule="evenodd" clip-rule="evenodd" d="M10.5058 1.78507C8.5024 1.65951 6.52202 2.26955 4.93649 3.50065C3.35096 4.73175 2.26932 6.49925 1.89462 8.47134C1.51992 10.4434 1.87793 12.4845 2.90145 14.2113C3.00626 14.3881 3.03389 14.6002 2.97789 14.798L2.09949 17.9005L5.47849 17.0221C7.20532 18.0456 9.55654 18.48 11.5286 18.1053C13.5007 17.7306 15.2682 16.649 16.4993 15.0635C17.7304 13.4779 18.3404 11.4976 18.2149 9.49413C18.0893 7.49069 17.2368 5.60198 15.8174 4.18256C14.398 2.76313 12.5093 1.91062 10.5058 1.78507ZM5.3081 18.551C7.28698 19.6358 9.58489 20.0015 11.8086 19.579C14.1397 19.1361 16.2289 17.8575 17.6841 15.9834C19.1393 14.1093 19.8604 11.7684 19.712 9.40031C19.5635 7.0322 18.5559 4.79969 16.8781 3.1219C15.2003 1.4441 12.9678 0.436414 10.5997 0.288004C8.23154 0.139595 5.89069 0.860672 4.01656 2.31587C2.14242 3.77106 0.863886 5.86029 0.42098 8.19134C-0.00153404 10.4151 0.364124 12.713 1.44899 14.6919L0.654105 17.4993C0.580059 17.7549 0.575775 18.0257 0.64173 18.2835C0.707999 18.5426 0.842737 18.779 1.03183 18.9681C1.22091 19.1572 1.45739 19.292 1.71645 19.3582C1.9743 19.4242 2.24508 19.4199 2.50068 19.3458L5.3081 18.551Z" fill="#1F1F1F"/>
<path d="M10 11.125C10.6213 11.125 11.125 10.6213 11.125 10C11.125 9.37868 10.6213 8.875 10 8.875C9.37868 8.875 8.875 9.37868 8.875 10C8.875 10.6213 9.37868 11.125 10 11.125Z" fill="#1F1F1F"/>
<path d="M5.5 11.125C6.12132 11.125 6.625 10.6213 6.625 10C6.625 9.37868 6.12132 8.875 5.5 8.875C4.87868 8.875 4.375 9.37868 4.375 10C4.375 10.6213 4.87868 11.125 5.5 11.125Z" fill="#1F1F1F"/>
<path d="M14.5 11.125C15.1213 11.125 15.625 10.6213 15.625 10C15.625 9.37868 15.1213 8.875 14.5 8.875C13.8787 8.875 13.375 9.37868 13.375 10C13.375 10.6213 13.8787 11.125 14.5 11.125Z" fill="#1F1F1F"/>
</svg>
