<svg width="30" height="30" viewBox="0 0 30 30" fill="none" xmlns="http://www.w3.org/2000/svg">
<path fill-rule="evenodd" clip-rule="evenodd" d="M5.53125 7.5H24.4688V8.4375L24.4732 7.50001C24.9317 7.50216 25.3737 7.67122 25.7167 7.97558C26.0596 8.27995 26.28 8.69878 26.3366 9.1538L26.3381 9.16615L28.0019 24.164C28.0019 24.1643 28.0018 24.1638 28.0019 24.164C28.0313 24.4252 28.0057 24.6903 27.9263 24.9409C27.8469 25.1917 27.7157 25.423 27.541 25.6197C27.3664 25.8165 27.1523 25.9742 26.9127 26.0828C26.6731 26.1914 26.4134 26.2484 26.1503 26.25L26.1445 26.25H3.84971C3.58665 26.2484 3.32688 26.1914 3.08728 26.0828C2.84768 25.9742 2.6336 25.8165 2.45898 25.6197C2.28435 25.423 2.15307 25.1917 2.07367 24.9409C1.99441 24.6906 1.96863 24.4263 1.99799 24.1654C1.99804 24.1649 1.99809 24.1645 1.99814 24.164L3.66334 9.15379C3.71994 8.69877 3.9404 8.27995 4.28334 7.97558C4.62628 7.67122 5.06833 7.50216 5.52685 7.50001L5.53125 7.5ZM24.4648 9.375H5.53522C5.53253 9.37511 5.52995 9.37615 5.52793 9.37794C5.52611 9.37956 5.52485 9.38169 5.5243 9.38404L3.86124 24.375H26.1388L24.4757 9.38404C24.4752 9.38169 24.4739 9.37956 24.4721 9.37794C24.4701 9.37615 24.4675 9.37511 24.4648 9.375Z" fill="#0A3CD2"/>
<path fill-rule="evenodd" clip-rule="evenodd" d="M15 4.6875C14.0054 4.6875 13.0516 5.08259 12.3483 5.78585C11.6451 6.48911 11.25 7.44294 11.25 8.4375V12.1875C11.25 12.7053 10.8303 13.125 10.3125 13.125C9.79473 13.125 9.375 12.7053 9.375 12.1875V8.4375C9.375 6.94566 9.96763 5.51492 11.0225 4.46002C12.0774 3.40513 13.5082 2.8125 15 2.8125C16.4918 2.8125 17.9226 3.40513 18.9775 4.46002C20.0324 5.51492 20.625 6.94566 20.625 8.4375V12.1875C20.625 12.7053 20.2053 13.125 19.6875 13.125C19.1697 13.125 18.75 12.7053 18.75 12.1875V8.4375C18.75 7.44294 18.3549 6.48911 17.6517 5.78585C16.9484 5.08259 15.9946 4.6875 15 4.6875Z" fill="#0A3CD2"/>
</svg>
